<svg xmlns="http://www.w3.org/2000/svg" width="17.163" height="24" viewBox="0 0 17.163 24"><defs><style>.a{fill:#fff;}</style></defs><path class="a" d="M41-197.754a2.846,2.846,0,0,0-1.27,1.033.589.589,0,0,1-.61.373,1.347,1.347,0,0,0-.722.261c-.3.236-.324.324-.324,1.182v.921H36.337c-2.016,0-2.577.149-2.987.809-.249.411-.249.535-.224,9.385l.037,8.974.473.461.461.473,7.518.037,7.518.025.386-.324c.8-.672.759-.187.759-9.8V-192.7l-.286-.423c-.485-.734-.909-.859-2.913-.859H45.3v-.821c0-.734-.037-.846-.361-1.182a1.056,1.056,0,0,0-.809-.361c-.249,0-.448-.062-.448-.137a1.468,1.468,0,0,0-.274-.51A2.392,2.392,0,0,0,41-197.754Zm1.083,1.618c.162.137.224.373.224.809v.6h1.494v1.245H39.574v-1.245h1.332l.062-.647C41.055-196.26,41.565-196.608,42.088-196.135Zm-3.759,3.771.349.373h2.875c2.962,0,3.423-.062,3.56-.523.075-.2.236-.224,1.767-.224,1.407,0,1.743.037,1.929.212.212.187.224.622.224,8.638,0,7.506-.025,8.451-.2,8.626s-.983.2-7.095.2c-4.531,0-7-.05-7.157-.124-.224-.124-.236-.361-.236-8.651,0-7.568.025-8.526.2-8.7.149-.162.51-.2,1.817-.2H37.98Z" transform="translate(-33.115 197.818)"/><path class="a" d="M80.394-137.885a28.467,28.467,0,0,0-1.838,2.62l-1.689,2.558-.571-.633c-.894-.981-1.316-1.118-1.826-.6-.509.5-.41.758.844,2.074,1.217,1.279,1.614,1.5,2.111,1.18a48.1,48.1,0,0,0,4.309-6.482A.928.928,0,0,0,80.394-137.885Z" transform="translate(-69.062 145.425)"/><path class="a" d="M55.29-64.742a.841.841,0,0,0,.037,1.217.868.868,0,0,0,1.292-.05.631.631,0,0,0,.236-.7,1.593,1.593,0,0,0-.211-.559A1.256,1.256,0,0,0,55.29-64.742Z" transform="translate(-52.317 81.525)"/><path class="a" d="M81.215-62.851a.671.671,0,0,0,0,.82,9.878,9.878,0,0,0,2.794.149c2.484,0,2.645-.012,2.769-.236.174-.335.161-.459-.075-.683-.161-.174-.6-.2-2.769-.2A9.378,9.378,0,0,0,81.215-62.851Z" transform="translate(-75.098 79.783)"/><path class="a" d="M55.319-41.678a.719.719,0,0,0-.124.956c.2.373.348.459.82.459a.757.757,0,0,0,.646-.323.708.708,0,0,0-.05-1.105A.816.816,0,0,0,55.319-41.678Z" transform="translate(-52.333 61.406)"/><path class="a" d="M81.35-39.8a.513.513,0,0,0-.075.844,16.656,16.656,0,0,0,5.439,0c.261-.261.248-.5-.05-.795-.236-.236-.41-.248-2.645-.248C82.058-40,81.573-39.963,81.35-39.8Z" transform="translate(-75.109 59.654)"/></svg>