<svg xmlns="http://www.w3.org/2000/svg" width="16" height="9.155" viewBox="0 0 16 9.155"><defs><style>.a{fill:#fff;}</style></defs><path class="a" d="M1.211-150.889a2.246,2.246,0,0,1-.474-.356c-.213-.237-.237-.3-.237-.814v-.553l3.556-3.508c1.96-1.928,3.69-3.579,3.848-3.666a1.284,1.284,0,0,1,1.114-.047c.269.119,7.2,6.858,7.372,7.174a2.118,2.118,0,0,1,.111.687c0,.474-.016.514-.3.8a1.2,1.2,0,0,1-1.762.016c-.2-.158-1.6-1.43-3.105-2.821s-2.781-2.528-2.813-2.528-1.4,1.225-3.034,2.726-3.113,2.789-3.271,2.86A1.15,1.15,0,0,1,1.211-150.889Z" transform="translate(-0.5 159.938)"/></svg>