<svg xmlns="http://www.w3.org/2000/svg" width="16.096" height="16.006" viewBox="0 0 16.096 16.006"><defs><style>.a{fill:none;stroke:#ff3f6d;}</style></defs><path class="a" d="M16.666,11.238a5.024,5.024,0,0,0,0-1.471L18.3,8.53a.371.371,0,0,0,.093-.48l-1.546-2.6a.394.394,0,0,0-.471-.165l-1.924.75A5.689,5.689,0,0,0,13.142,5.3l-.294-1.988A.373.373,0,0,0,12.47,3H9.379A.373.373,0,0,0,9,3.315L8.707,5.3A5.982,5.982,0,0,0,7.4,6.039l-1.924-.75a.382.382,0,0,0-.471.165L3.46,8.049a.363.363,0,0,0,.093.48L5.183,9.768a5.78,5.78,0,0,0-.054.735,5.78,5.78,0,0,0,.054.735L3.552,12.476a.371.371,0,0,0-.093.48l1.546,2.6a.394.394,0,0,0,.471.165l1.924-.75a5.689,5.689,0,0,0,1.306.735L9,17.691a.374.374,0,0,0,.379.315H12.47a.374.374,0,0,0,.379-.315l.294-1.988a5.982,5.982,0,0,0,1.306-.735l1.924.75a.382.382,0,0,0,.471-.165l1.546-2.6a.371.371,0,0,0-.093-.48l-1.631-1.238Zm-5.742,1.891a2.627,2.627,0,1,1,2.7-2.626A2.669,2.669,0,0,1,10.924,13.129Z" transform="translate(-2.872 -2.5)"/></svg>