<svg xmlns="http://www.w3.org/2000/svg" width="52.64" height="43.886" viewBox="0 0 52.64 43.886"><defs><style>.a{fill:#666;}</style></defs><g transform="translate(0 0)"><path class="a" d="M10.14-887.165c-4.076.718-7.32,3.643-7.954,7.177-.075.435-.137,6.013-.137,15.049-.025,14.168-.012,14.364.236,15.223A9.4,9.4,0,0,0,8.7-843.7l.994.294,18.331.033c17.958.022,18.343.022,19.325-.2a9.759,9.759,0,0,0,6.338-4.512c1.056-1.87.994-1.076.994-13.537,0-10.232-.012-11.1-.224-11.863a9.593,9.593,0,0,0-7.034-6.328c-.92-.217-1.243-.228-10.041-.272l-9.085-.033-.162-.565a9.456,9.456,0,0,0-6.574-6.187l-1.181-.359-4.847-.022C12.874-887.263,10.438-887.219,10.14-887.165Zm9.619,2.262a8.448,8.448,0,0,1,5.021,3.73,9.319,9.319,0,0,1,.51.979c0,.043-3.393.087-7.543.12-8.413.054-8.239.032-10.153.826a11.618,11.618,0,0,0-1.877,1.022l-.87.62L4.808-878a6.63,6.63,0,0,1,.932-3.2,7.286,7.286,0,0,1,3.641-3.2c1.74-.75,2.324-.826,6.214-.783C18.615-885.153,18.963-885.132,19.759-884.9Zm17.088,7.111c9.457.022,9.507.022,10.327.261a7.951,7.951,0,0,1,3.952,2.805,6.126,6.126,0,0,1,.932,2.36l.087.522H4.784v-.739a4.115,4.115,0,0,1,1.156-2.664,6.735,6.735,0,0,1,2.635-1.99c1.479-.641,1.553-.641,10.576-.62C23.648-877.836,31.614-877.814,36.846-877.792Zm15.286,17.55c0,7.4-.037,9.025-.186,9.656a6.946,6.946,0,0,1-5.1,4.806c-.708.185-1.616.2-18.517.2H10.562l-.87-.239a7.027,7.027,0,0,1-3.915-2.6,7.107,7.107,0,0,1-.895-1.6c-.323-.892-.336-1.653-.162-13.375l.087-5.73H52.132Z" transform="translate(-2.041 887.254)"/></g></svg>