<svg xmlns="http://www.w3.org/2000/svg" xmlns:xlink="http://www.w3.org/1999/xlink" width="430.429" height="99.611" viewBox="0 0 430.429 99.611"><defs><style>.a,.c{fill:none;stroke-linecap:round;}.a{stroke:#1b0088;stroke-width:9px;}.b{fill:#1b0088;font-size:22px;}.b,.e{font-family:Arial-Black, Arial Black;font-weight:800;}.c{stroke:#ed1650;stroke-width:8px;}.d,.e{fill:#ed1650;}.e{font-size:15px;}.f{filter:url(#a);}</style><filter id="a" x="0" y="66.611" width="369.922" height="33" filterUnits="userSpaceOnUse"><feOffset dy="6" input="SourceAlpha"/><feGaussianBlur stdDeviation="4" result="b"/><feFlood flood-opacity="0.161"/><feComposite operator="in" in2="b"/><feComposite in="SourceGraphic"/></filter></defs><g transform="translate(-353.571 -461.419)"><g class="f" transform="matrix(1, 0, 0, 1, 353.57, 461.42)"><path class="a" d="M0,4.135H336.922" transform="translate(16.5 72.98)"/></g><text class="b" transform="translate(575 485.419)"><tspan x="-208.817" y="0">BIENVENIDO A LA BECA DFRONTT</tspan></text><path class="c" d="M0,0H116.052" transform="translate(367.971 499.194)"/><path class="d" d="M44.408-202.869a1.444,1.444,0,0,0-.324.324,1.329,1.329,0,0,0,0,1.164c.069.11.958,1.1,1.971,2.2s2.081,2.26,2.377,2.584l.537.593-2.474,2.68c-2.646,2.873-2.6,2.8-2.522,3.459a.806.806,0,0,0,.276.558.793.793,0,0,0,.661.276.93.93,0,0,0,.62-.1c.283-.186,6.126-6.153,6.256-6.394a1.139,1.139,0,0,0,.076-.6c-.034-.475.317-.076-3.673-4.148L45.5-203h-.448A1.11,1.11,0,0,0,44.408-202.869Z" transform="translate(670.333 716.318)"/><text class="e" transform="translate(539 523.419)"><tspan x="-170.947" y="0">Por favor ingresa a la sección que deseas</tspan></text></g></svg>